# xmcd
#
# Track frame offsets:
#	150
#	9240
#	40998
#	65690
#	88422
#	112869
#	155122
#	189648
#	221072
#
# Disc length: 3089 seconds
#
# Revision: 1
# Processed by: cddbd v1.5.2PL0 Copyright (c) Steve Scherf et al.
# Submitted via: audiograbber 1.83.01
#
DISCID=7d0c0f09
DTITLE=Calliophis - Doomsday
DYEAR=2008
DGENRE=Metal
TTITLE0=Tragedy's Rising (Intro)
TTITLE1=Little Ease
TTITLE2=Eyes Of Suffering
TTITLE3=No Life
TTITLE4=Balanced On A Knife Edge
TTITLE5=Munk
TTITLE6=One Flame One Illusion
TTITLE7=Romasanta
TTITLE8=Agony (Outro)
EXTD=
EXTT0=
EXTT1=
EXTT2=
EXTT3=
EXTT4=
EXTT5=
EXTT6=
EXTT7=
EXTT8=
PLAYORDER=
